<svg width="22" height="22" viewBox="0 0 22 22" fill="none" xmlns="http://www.w3.org/2000/svg">
<path d="M5.76406 3.93525L2.10198 7.60191L2.02498 7.689C1.88828 7.86548 1.82068 8.08577 1.83486 8.30855C1.84904 8.53132 1.94402 8.74127 2.10198 8.899L2.18906 8.97508C2.36554 9.11178 2.58584 9.17938 2.80861 9.1652C3.03139 9.15103 3.24134 9.05604 3.39906 8.89808L5.50006 6.7925V17.4167L5.50648 17.5239C5.53254 17.7471 5.63964 17.9529 5.80745 18.1023C5.97525 18.2516 6.19207 18.3342 6.41673 18.3342L6.52398 18.3278C6.74712 18.3015 6.95283 18.1942 7.10205 18.0262C7.25126 17.8583 7.33359 17.6413 7.3334 17.4167V6.79891L9.43531 8.89808L9.5224 8.97508C9.70666 9.11929 9.9391 9.18757 10.1721 9.16595C10.4051 9.14432 10.621 9.03441 10.7755 8.85875C10.9301 8.68308 11.0116 8.45496 11.0035 8.22112C10.9953 7.98728 10.898 7.76542 10.7315 7.601L7.05931 3.93433L6.97315 3.85825C6.79667 3.72155 6.57638 3.65395 6.3536 3.66813C6.13082 3.6823 5.92179 3.77728 5.76406 3.93525ZM15.5834 3.66941L15.4761 3.67583C15.2532 3.7021 15.0476 3.80929 14.8984 3.97707C14.7492 4.14486 14.6668 4.36156 14.6667 4.58608V15.2011L12.5648 13.1019L12.4777 13.0249C12.2934 12.8824 12.0617 12.8154 11.8298 12.8376C11.5978 12.8598 11.383 12.9694 11.229 13.1443C11.0751 13.3192 10.9935 13.5461 11.0008 13.779C11.0082 14.0119 11.1039 14.2333 11.2686 14.3981L14.939 18.0647L15.0251 18.1417C15.2016 18.2784 15.4219 18.346 15.6447 18.3319C15.8675 18.3177 16.0774 18.2227 16.2351 18.0647L19.8981 14.3981L19.9751 14.311C20.1118 14.1345 20.1794 13.9142 20.1653 13.6914C20.1511 13.4687 20.0561 13.2587 19.8981 13.101L19.8111 13.0249C19.6346 12.8882 19.4143 12.8206 19.1915 12.8348C18.9687 12.849 18.7588 12.944 18.6011 13.1019L16.5001 15.2047V4.58608L16.4936 4.47975C16.4676 4.2566 16.3605 4.0508 16.1927 3.90141C16.0249 3.75203 15.8081 3.66947 15.5834 3.66941Z" fill="#8D7884"/>
</svg>
