<svg width="36" height="36" viewBox="0 0 36 36" fill="none" xmlns="http://www.w3.org/2000/svg">
<path d="M13.506 5.124C12.648 3.909 11.46 3.3615 10.2 3.375C9.00449 3.387 7.84049 3.8985 6.86849 4.5795C5.87708 5.27748 5.03172 6.16259 4.37999 7.185C3.76499 8.1585 3.32099 9.309 3.38099 10.4325C3.67049 15.837 6.71099 21.612 10.9815 25.8855C15.249 30.1545 20.9475 33.1215 26.7015 32.5545C27.8295 32.4435 28.896 31.869 29.7675 31.137C30.6689 30.3735 31.4054 29.4344 31.932 28.377C32.442 27.339 32.7465 26.142 32.5785 24.9765C32.4045 23.7615 31.725 22.6755 30.4755 21.9555C30.2166 21.8053 29.9606 21.6503 29.7075 21.4905C29.4825 21.351 29.2425 21.1995 28.9515 21.0255C28.3571 20.659 27.7299 20.3487 27.078 20.0985C26.4075 19.854 25.641 19.6935 24.843 19.803C24.0165 19.917 23.2485 20.307 22.584 21.006C22.0725 21.546 21.3195 21.714 20.2605 21.408C19.1835 21.096 17.9715 20.322 16.9185 19.275C15.8655 18.231 15.069 17.01 14.7285 15.9075C14.3925 14.8155 14.541 14.013 15.066 13.4595C15.7755 12.7125 16.1535 11.8815 16.233 11.0025C16.311 10.1475 16.098 9.3435 15.7935 8.6415C15.3375 7.593 14.5635 6.5505 13.9575 5.7375C13.8051 5.53424 13.6551 5.32922 13.5075 5.1225" fill="#8D7884"/>
</svg>
