<svg width="20" height="20" viewBox="0 0 20 20" fill="none" xmlns="http://www.w3.org/2000/svg">
<path d="M9.26336 15.7367C9.45904 15.9315 9.72391 16.0408 10 16.0408C10.2761 16.0408 10.541 15.9315 10.7367 15.7367L14.9034 11.57C15.0001 11.4733 15.0768 11.3584 15.1292 11.232C15.1815 11.1056 15.2085 10.9701 15.2085 10.8333C15.2085 10.557 15.0987 10.292 14.9034 10.0967C14.708 9.90129 14.443 9.79153 14.1667 9.79153C13.8904 9.79153 13.6254 9.90129 13.43 10.0967L11.0417 12.485V5C11.0417 4.72374 10.9319 4.45878 10.7366 4.26343C10.5412 4.06808 10.2763 3.95834 10 3.95834C9.72376 3.95834 9.45881 4.06808 9.26346 4.26343C9.06811 4.45878 8.95836 4.72374 8.95836 5V12.485L6.57003 10.0967C6.47329 9.99993 6.35844 9.92319 6.23204 9.87084C6.10564 9.81848 5.97017 9.79153 5.83336 9.79153C5.69655 9.79153 5.56108 9.81848 5.43468 9.87084C5.30828 9.92319 5.19343 9.99993 5.09669 10.0967C4.99995 10.1934 4.92321 10.3083 4.87086 10.4347C4.8185 10.5611 4.79156 10.6965 4.79156 10.8333C4.79156 10.9701 4.8185 11.1056 4.87086 11.232C4.92321 11.3584 4.99995 11.4733 5.09669 11.57L9.26336 15.7367Z" fill="#8D7884"/>
</svg>
