<svg width="45" height="45" viewBox="0 0 45 45" fill="none" xmlns="http://www.w3.org/2000/svg">
<path d="M19.6199 6.15374C19.9555 5.75118 20.3717 5.42343 20.8417 5.19161C21.3117 4.9598 21.8251 4.82908 22.3488 4.80788C22.8724 4.78668 23.3947 4.87547 23.8819 5.06853C24.3691 5.26159 24.8104 5.55462 25.1774 5.92874L25.3799 6.15374L32.7543 15H38.3512C38.7447 14.9992 39.1339 15.0814 39.4934 15.2415C39.8528 15.4015 40.1745 15.6357 40.4371 15.9286C40.6998 16.2216 40.8977 16.5667 41.0177 16.9415C41.1378 17.3162 41.1773 17.712 41.1337 18.1031L40.9612 19.5394L40.7737 20.9269L40.6199 21.9656L40.4418 23.0812L40.2393 24.2531L40.0106 25.4681L39.7556 26.7075C39.6206 27.3325 39.4756 27.9569 39.3206 28.5806C38.9055 30.2269 38.3844 31.8447 37.7606 33.4237L37.3462 34.4362L36.945 35.3512L36.5662 36.165L36.39 36.5287L35.9231 37.4475C35.3231 38.5912 34.1906 39.2662 32.9924 39.3637L32.6924 39.375H12.2906C11.6351 39.3799 10.9906 39.2067 10.4258 38.8738C9.86114 38.5409 9.39746 38.0609 9.08432 37.485L8.64932 36.6412L8.31182 35.9475L8.1337 35.5631L7.7587 34.7212C6.90238 32.7328 6.20764 30.6787 5.6812 28.5787C5.57941 28.171 5.4819 27.7623 5.3887 27.3525L5.12245 26.1375L4.88432 24.9487L4.67432 23.7994L4.48682 22.6987L4.3237 21.66L4.18495 20.6981L4.0162 19.4175L3.89245 18.375L3.86057 18.0881C3.82179 17.7197 3.85664 17.3473 3.9631 16.9926C4.06957 16.6378 4.24552 16.3077 4.48071 16.0216C4.71591 15.7355 5.00566 15.4989 5.33311 15.3258C5.66056 15.1527 6.01917 15.0464 6.38807 15.0131L6.64307 15H12.2474L19.6199 6.15374ZM37.2806 18.75H7.71182L7.82807 19.6575L7.97057 20.685L8.14307 21.8175L8.34557 23.0325C8.42057 23.4487 8.49932 23.875 8.58182 24.3112L8.84995 25.6369C8.99245 26.3081 9.14995 26.9906 9.3187 27.6694C9.79453 29.5646 10.4215 31.4187 11.1937 33.2137L11.5612 34.0406L11.9024 34.7606L12.2081 35.3662L12.3431 35.625H32.6437L32.9324 35.0569L33.2643 34.3725L33.6281 33.5794C34.3162 32.0325 35.1037 29.9831 35.6812 27.6694C35.9156 26.7319 36.1237 25.7794 36.3093 24.8437L36.5718 23.46L36.7968 22.1306L36.8962 21.495L37.0743 20.3006L37.2187 19.2319L37.2806 18.75ZM18.7237 24.0675L19.6612 29.6925C19.7267 30.1756 19.6014 30.6652 19.312 31.0574C19.0225 31.4497 18.5917 31.7139 18.1108 31.7938C17.6299 31.8738 17.1368 31.7634 16.736 31.4859C16.3351 31.2084 16.0581 30.7857 15.9637 30.3075L15.0262 24.6825C14.9776 24.4363 14.9789 24.1828 15.03 23.9371C15.0812 23.6913 15.1812 23.4584 15.324 23.252C15.4669 23.0457 15.6497 22.8701 15.8617 22.7357C16.0737 22.6013 16.3105 22.5108 16.558 22.4697C16.8056 22.4285 17.059 22.4374 17.303 22.496C17.5471 22.5545 17.7769 22.6615 17.9789 22.8105C18.1808 22.9595 18.3508 23.1475 18.4788 23.3634C18.6067 23.5794 18.69 23.8188 18.7237 24.0675ZM28.2149 22.5L28.4324 22.5244C28.8863 22.5993 29.2967 22.8384 29.5858 23.1962C29.8748 23.554 30.0222 24.0056 29.9999 24.465L29.9756 24.6825L29.0381 30.3075C28.9585 30.7783 28.7024 31.2011 28.3218 31.4895C27.9412 31.778 27.465 31.9103 26.9901 31.8596C26.5153 31.8089 26.0777 31.5789 25.7667 31.2166C25.4556 30.8543 25.2945 30.387 25.3162 29.91L25.3406 29.6925L26.2781 24.0675C26.3529 23.6143 26.5915 23.2044 26.9485 22.9155C27.3055 22.6265 27.7562 22.4787 28.2149 22.5ZM22.4999 8.55374L17.1281 15H27.8718L22.4999 8.55374Z" fill="#8D7884"/>
</svg>
