<svg width="45" height="45" viewBox="0 0 45 45" fill="none" xmlns="http://www.w3.org/2000/svg">
<path fill-rule="evenodd" clip-rule="evenodd" d="M28.7063 5.625C30.6672 5.62471 32.5902 6.16487 34.2642 7.18614C35.9382 8.2074 37.2983 9.67027 38.1952 11.4141C39.0921 13.1578 39.491 15.1151 39.3482 17.0708C39.2054 19.0265 38.5263 20.905 37.3856 22.5C38.8573 24.5551 39.5516 27.0659 39.3446 29.5852C39.1377 32.1044 38.043 34.4683 36.2556 36.2556C34.4683 38.043 32.1044 39.1377 29.5852 39.3446C27.0659 39.5516 24.5551 38.8573 22.5 37.3856C20.4449 38.8573 17.9341 39.5516 15.4148 39.3446C12.8956 39.1377 10.5317 38.043 8.74436 36.2556C6.95701 34.4683 5.86232 32.1044 5.65537 29.5852C5.44843 27.0659 6.14266 24.5551 7.61437 22.5C6.14266 20.4449 5.44843 17.9341 5.65537 15.4148C5.86232 12.8956 6.95701 10.5317 8.74436 8.74436C10.5317 6.957 12.8956 5.86232 15.4148 5.65537C17.9341 5.44842 20.4449 6.14266 22.5 7.61437C24.3095 6.31786 26.4802 5.62203 28.7063 5.625ZM34.6463 25.1569C32.89 26.3364 30.8218 26.965 28.7063 26.9625H28.53C27.7724 27.9863 26.7665 28.8004 25.6072 29.3279C24.4479 29.8554 23.1734 30.0789 21.9038 29.9775C22.1594 31.3547 22.8292 32.6211 23.8238 33.6075C25.0184 34.798 26.6067 35.5112 28.2902 35.613C29.9737 35.7147 31.6364 35.198 32.9657 34.1601C34.2951 33.1221 35.1995 31.6343 35.5089 29.9763C35.8184 28.3184 35.5116 26.6045 34.6463 25.1569ZM15.0225 21.9037C13.6453 22.1594 12.3789 22.8292 11.3925 23.8237C10.202 25.0184 9.48878 26.6067 9.38703 28.2902C9.28527 29.9737 9.80195 31.6364 10.8399 32.9657C11.8779 34.2951 13.3657 35.1995 15.0237 35.5089C16.6816 35.8184 18.3955 35.5116 19.8431 34.6462C18.6636 32.89 18.035 30.8218 18.0375 28.7062V28.53C17.0137 27.7724 16.1996 26.7665 15.6721 25.6072C15.1446 24.4479 14.9211 23.1734 15.0225 21.9037ZM22.5 18.75C21.5054 18.75 20.5516 19.1451 19.8484 19.8483C19.1451 20.5516 18.75 21.5054 18.75 22.5C18.75 23.4946 19.1451 24.4484 19.8484 25.1516C20.5516 25.8549 21.5054 26.25 22.5 26.25C23.4946 26.25 24.4484 25.8549 25.1516 25.1516C25.8549 24.4484 26.25 23.4946 26.25 22.5C26.25 21.5054 25.8549 20.5516 25.1516 19.8483C24.4484 19.1451 23.4946 18.75 22.5 18.75ZM28.7063 9.375C27.4088 9.375 26.1938 9.73125 25.1569 10.3537C26.2969 12.0506 26.9625 14.0962 26.9625 16.2937V16.47C27.9863 17.2276 28.8004 18.2335 29.3279 19.3928C29.8554 20.5521 30.0789 21.8266 29.9775 23.0962C31.3535 22.8372 32.619 22.1679 33.6075 21.1762C34.5723 20.2076 35.2285 18.9748 35.4932 17.6335C35.758 16.2923 35.6194 14.9026 35.095 13.64C34.5707 12.3775 33.684 11.2985 32.5469 10.5394C31.4099 9.78035 30.0734 9.37516 28.7063 9.375ZM16.2937 9.375C15.0703 9.37481 13.8687 9.69904 12.8114 10.3146C11.7541 10.9302 10.879 11.8151 10.2752 12.8792C9.67143 13.9433 9.36059 15.1484 9.37438 16.3718C9.38818 17.5951 9.72612 18.7929 10.3537 19.8431C12.11 18.6636 14.1782 18.035 16.2937 18.0375H16.47C17.2276 17.0136 18.2335 16.1996 19.3928 15.6721C20.5521 15.1446 21.8266 14.9211 23.0963 15.0225C22.8372 13.6465 22.1679 12.381 21.1762 11.3925C20.5348 10.752 19.7735 10.2441 18.9357 9.89796C18.098 9.55179 17.2002 9.37409 16.2937 9.375Z" fill="#8D7884"/>
</svg>
